ABBA.The.Movie.1977.720p.BluRay.DTS.x264-ESiR
 
http://www.imdb.com/title/tt0075617/

Title: ABBA: The Movie
Year: 1977
Runtime: 95 mins
Votes: 1,513 votes
Rating: 6.1
All Genres: Music, IMDb Music section
Tagline:
Director: Lasse Hallstrom
Writing By: Robert Caswell Lasse Hallstrom

Description:
Movie detailing ABBA's mega-successful tour of Australia during mid-1977. While it mostly contains back-stage footage and as well as ABBA's famous songs such as "Dancing Queen", "Tiger", "Name Of The Game" and "Eagle" among others sung filmed during their concerts in Sydney, Melbourne, Perth and Adelaide, it has the sub-plot of young country and western radio disc-jockey, Ashley, whose boss orders him to have a deep interview with ABBA and the problems he has trying to reach them as he forgets his press pass and ABBA's main bodyguard, (Tom Oliver) is determined to stop him... 


Cast:
. Anni-Frid Lyngstad as Anni-Frid
. Benny Andersson as Benny
. Bjorn Ulvaeus as Bjorn
. Agnetha Faltskog as Agnetha
. Robert Hughes as Ashley Wallace, the disc Jockey 



Format                           : Matroska
File size                        : 4.36 GiB
Duration                         : 1h 35mn
Overall bit rate                 : 6 545 Kbps

Video

Format/Info                      : Advanced Video Codec
Format profile                   : High@L5.1
Format settings, CABAC           : Yes
Format settings, ReFrames        : 8 frames
Duration                         : 1h 35mn
Bit rate                         : 5 031 Kbps
Width                            : 1 280 pixels
Height                           : 548 pixels
Display aspect ratio             : 2.35:1
Frame rate                       : 24.000 fps
Stream size                      : 3.26 GiB (75%)
Writing library                  : x264 core 57 svn-709C
Language                         : English

Audio

Format                           : DTS
Codec ID                         : A_DTS
Duration                         : 1h 35mn
Bit rate mode                    : Constant
Bit rate                         : 1 510 Kbps
Channel(s)                       : 6 channels
Channel positions                : Front: L C R, Side: L R, LFE
Sampling rate                    : 48.0 KHz
Resolution                       : 24 bits
Stream size                      : 1.00 GiB (23%)
Language                         : English
